<?xml version="1.0" encoding="UTF-8"?>
<svg id="Layer_1" xmlns="http://www.w3.org/2000/svg" version="1.1" viewBox="0 0 144 110.69">
  <!-- Generator: Adobe Illustrator 29.2.1, SVG Export Plug-In . SVG Version: 2.1.0 Build 116)  -->
  <defs>
    <style>
      .st0 {
        fill: #cc7d29;
      }

      .st1 {
        fill: #221161;
      }

      .st2 {
        fill: #25215f;
      }
    </style>
  </defs>
  <g>
    <path class="st0" d="M49.56,49.93l-.51-.9.9-.51c.4-.23.76-.49,1.05-.78,1.17-1.14,1.73-2.74,1.73-4.89s-.57-3.75-1.73-4.89c-1.16-1.13-2.89-1.7-5.17-1.7h-9.51c1.22,7.13,1.22,13.63,0,20.76h5.75c-.81-2.22-.8-3.56-.79-5.56v-.97s0-1.04,0-1.04h2.8l.29.25c2.58,2.19,4.51,4.04,5.39,7.38.97.02,2.89,0,4.93-.03-.06-.07-.12-.14-.18-.22-1.75-2.17-3.56-4.42-4.96-6.89ZM44.29,46.73h-3.01v-7.77h3.01c2.74,0,4.31,1.42,4.31,3.88s-2.76,3.89-4.31,3.89Z"/>
    <path class="st0" d="M77.03,53.76h-8.53s-.12-.9-.12-.9c-.16-1.22-.28-2.45-.36-3.65l-.07-1.1h7.57s0-3.05,0-3.05h-7.6s.05-1.09.05-1.09c.05-1.2.15-2.38.3-3.51l.12-.91h8.3c.21-1.4.45-2.43.62-3.05h-13.96c.24.91.66,2.75.9,5.33.31,3.31.39,8.56-.94,14.97h14.36c-.16-.61-.4-1.65-.62-3.05Z"/>
    <path class="st0" d="M100.89,45.93l.37-.58c2.09-3.3,4.53-6.13,7.24-9.07h-6.26c-.57,1.65-1.31,2.86-2.29,4.47l-1.51,2.5-.86-1.63c-.22-.42-.43-.81-.63-1.17-.78-1.43-1.43-2.62-1.67-4.16h-5.94c2.55,3,4.83,5.86,6.77,9.09l.36.59-.4.56c-2.59,3.56-5.38,6.95-8.68,10.53h6.57c1.03-2.58,1.94-4.15,4.03-7.02l.92-1.27.81,1.34c1.65,2.74,2.39,4.19,3.24,6.95h6.65c-3.32-3.75-5.93-7.06-8.34-10.55l-.39-.57Z"/>
    <path class="st0" d="M14.57,82.53l-1.08-2.86c-1.72-4.54-3.1-8.18-3.86-12.92H3.76c4.09,6.82,6.72,14.21,8.87,20.76h3.87c2.18-6.57,4.84-13.98,8.91-20.76h-5.87c-.77,4.75-2.15,8.39-3.88,12.93l-1.09,2.86Z"/>
    <path class="st0" d="M51.89,78.14c-.1-3.77-.22-7.99.89-11.72h-5.53c.96,3.67.96,7.79.82,11.42,0,.65-.03,1.36-.08,2.08-.06.82-.25,1.58-.56,2.26-.34.74-.87,1.35-1.57,1.81-.71.47-1.65.7-2.86.7s-2.14-.23-2.87-.7c-.71-.46-1.25-1.08-1.58-1.83-.3-.67-.48-1.43-.54-2.24-.05-.72-.08-1.43-.08-2.12-.14-3.59-.14-7.71.82-11.38h-5.55c1.11,3.73.99,7.95.89,11.72v.51c-.01,3.22.71,5.6,2.14,7.02,1.43,1.43,3.71,2.15,6.78,2.15s5.34-.72,6.76-2.15c1.42-1.43,2.14-3.8,2.14-7.05v-.48Z"/>
    <path class="st0" d="M74.78,87.51c-.08-.77-.26-1.41-.47-2.2-.06-.24-.13-.49-.2-.75h-8.3v-1.05c.03-1.48,0-2.93,0-4.37-.05-4.2-.09-8.19.6-12.39h-5.8c1.22,7.13,1.22,13.63,0,20.76h14.18Z"/>
    <path class="st0" d="M96.91,68.45c-1.16-1.13-2.89-1.7-5.17-1.7h-9.51c1.22,7.13,1.22,13.63,0,20.76h5.75c-.81-2.23-.8-3.56-.79-5.55v-.98s0-1.04,0-1.04h4.56c2.27,0,4.01-.57,5.17-1.7,1.17-1.14,1.73-2.74,1.73-4.89s-.57-3.75-1.73-4.89ZM90.2,77.22h-3.01v-7.77h3.01c2.74,0,4.31,1.42,4.31,3.89s-1.57,3.88-4.31,3.88Z"/>
    <path class="st0" d="M119.89,84.23h-8.53s-.12-.9-.12-.9c-.16-1.22-.28-2.45-.36-3.65l-.07-1.1h7.57s0-3.05,0-3.05h-7.6s.05-1.09.05-1.09c.05-1.2.15-2.38.3-3.51l.12-.91h8.3c.21-1.4.45-2.43.62-3.05h-13.96c.24.91.66,2.75.9,5.33.31,3.31.39,8.56-.94,14.97h14.36c-.16-.61-.4-1.65-.62-3.05Z"/>
    <path class="st0" d="M137.03,75.6c-.47-.16-.95-.3-1.43-.44-.55-.16-1.05-.35-1.5-.56-.51-.25-.93-.55-1.26-.91-.42-.45-.64-1.04-.64-1.7,0-.91.39-1.69,1.14-2.25.67-.5,1.49-.77,2.53-.75,1.59,0,2.65.55,3.37,1.29l1.29-2.95c-.43-.11-.82-.26-1.18-.39-.36-.13-.73-.27-1.12-.37-2.33-.59-4.53-.58-6.21.04-.84.31-1.55.75-2.12,1.3-.57.55-1.02,1.23-1.34,2.01-.32.79-.48,1.69-.48,2.68s.14,1.76.43,2.35c.29.6.67,1.1,1.13,1.49.49.41,1.05.75,1.68.99.7.28,1.44.54,2.19.78.69.24,1.26.44,1.72.63.55.22.98.45,1.34.72.42.31.73.68.92,1.08.19.39.28.85.28,1.34,0,.85-.36,1.63-1.04,2.27-.67.63-1.64.95-2.88.95-.99,0-2-.22-2.99-.66-.69-.3-1.2-.75-1.7-1.35l-1.63,3.25c1.29.26,2.28.62,3.19.95,1.18.43,2.12.77,3.4.77s2.42-.17,3.41-.51c.96-.33,1.78-.79,2.43-1.37.64-.57,1.13-1.26,1.46-2.06.34-.82.51-1.75.51-2.78,0-1.5-.36-2.67-1.11-3.56-.77-.92-2.04-1.69-3.79-2.27Z"/>
    <path class="st2" d="M57.64,57.4c-.48-.62-.98-1.24-1.5-1.88-1.49-1.86-3.03-3.77-4.28-5.78.21-.16.41-.34.6-.52,1.56-1.53,2.36-3.67,2.36-6.38s-.79-4.85-2.36-6.38c-1.56-1.52-3.78-2.3-6.62-2.3h-12l.23,1.23c1.47,7.76,1.47,14.69,0,22.45l-.23,1.23h11.37s-.64-1.47-.64-1.47c-1.2-2.73-1.21-3.87-1.2-6.07,2.41,2.06,3.93,3.63,4.55,6.7.14.71.19.93,3.2.93,1.29,0,3.12-.04,5.73-.09l2.07-.04-1.27-1.63ZM49.76,57.06c-.88-3.34-2.81-5.19-5.39-7.38l-.29-.25h-2.8v1.04s0,.97,0,.97c0,2-.01,3.33.79,5.56h-5.75c1.22-7.13,1.22-13.63,0-20.76h9.51c2.27,0,4.01.57,5.17,1.7,1.17,1.14,1.73,2.74,1.73,4.89s-.57,3.75-1.73,4.89c-.3.29-.65.55-1.05.78l-.9.51.51.9c1.4,2.47,3.21,4.72,4.96,6.89.06.07.12.14.18.22-2.05.03-3.96.05-4.93.03Z"/>
    <path class="st2" d="M44.29,38.96h-3.01v7.77h3.01c1.55,0,4.31-1.3,4.31-3.89s-1.57-3.88-4.31-3.88ZM43.36,41.03h.93c2.06,0,2.23.93,2.23,1.81,0,1.19-1.66,1.81-2.23,1.81h-.93v-3.62Z"/>
    <path class="st2" d="M60.71,58.89h19.78s-.69-2.09-.69-2.09c-.03-.08-.44-1.4-.77-3.71l-.2-1.4h-8.51c-.06-.5-.11-1-.15-1.5h7.42s0-7.2,0-7.2h-7.49c.03-.46.07-.91.12-1.35h6.71s1.72,0,1.72,0v-1.04l.03-.36c.32-2.26.73-3.57.77-3.7l.7-2.1h-19.66s.69,2.09.69,2.09c0,.02.66,2.05.98,5.51.31,3.26.37,8.5-1.02,14.91l-.42,1.94ZM64.23,41.84c-.24-2.58-.66-4.42-.9-5.33h13.96c-.16.61-.4,1.65-.62,3.05h-8.3s-.12.91-.12.91c-.14,1.13-.24,2.31-.3,3.51l-.05,1.08h7.6s0,3.05,0,3.05h-7.57s.07,1.1.07,1.1c.08,1.2.2,2.43.36,3.65l.12.9h8.53c.21,1.4.45,2.44.62,3.05h-14.36c1.33-6.41,1.25-11.66.94-14.97Z"/>
    <path class="st2" d="M112.71,57.38c-3.82-4.2-6.72-7.77-9.33-11.5,2.33-3.54,5.13-6.6,8.26-9.93l1.65-1.75h-12.59l-.22.75c-.46,1.58-1.04,2.62-1.93,4.09-.78-1.43-1.24-2.39-1.29-3.84l-.04-1h-12.41l1.48,1.72c2.91,3.38,5.52,6.48,7.68,9.93-2.84,3.86-5.95,7.53-9.74,11.51l-1.67,1.75h12.81l.25-.67c.89-2.35,1.62-3.77,3.11-5.92,1.14,1.98,1.7,3.31,2.45,5.84l.22.75h12.87l-1.58-1.74ZM102.96,57.04c-.86-2.76-1.59-4.21-3.24-6.95l-.81-1.34-.92,1.27c-2.09,2.88-3,4.45-4.03,7.02h-6.57c3.3-3.58,6.09-6.97,8.68-10.53l.4-.56-.36-.59c-1.95-3.22-4.23-6.09-6.77-9.09h5.94c.24,1.55.89,2.73,1.67,4.16.2.36.41.75.63,1.17l.86,1.63,1.51-2.5c.98-1.6,1.72-2.82,2.29-4.47h6.26c-2.71,2.94-5.15,5.77-7.24,9.07l-.37.58.39.57c2.41,3.49,5.02,6.8,8.34,10.55h-6.65Z"/>
    <path class="st2" d="M17.63,65.56c-.58,4.14-1.66,7.41-3.05,11.11-1.38-3.7-2.45-6.97-3.02-11.11l-.12-.9H0l1.03,1.6c4.68,7.29,7.55,15.49,9.87,22.6l.23.72h6.87l.23-.71c2.35-7.14,5.25-15.35,9.91-22.6l1.03-1.6h-11.43l-.13.89ZM25.41,66.74c-4.07,6.79-6.73,14.19-8.91,20.76h-3.87c-2.15-6.55-4.79-13.94-8.87-20.76h5.87c.76,4.74,2.14,8.38,3.86,12.92l1.08,2.86,1.09-2.86c1.73-4.54,3.12-8.18,3.88-12.93h5.87Z"/>
    <path class="st2" d="M44.87,65.73c1.26,3.66,1.28,8.14,1.12,12.08,0,.64-.02,1.3-.07,1.97-.04.57-.17,1.08-.38,1.53-.18.39-.45.7-.83.95-.35.23-.95.36-1.72.36s-1.37-.13-1.74-.36c-.38-.24-.64-.55-.81-.93-.2-.45-.33-.97-.37-1.55-.05-.67-.07-1.33-.07-2.01-.15-3.9-.14-8.38,1.12-12.04l.47-1.37h-11.4l.58,1.43c1.47,3.65,1.35,8.25,1.24,12.31v.54c-.01,3.82.91,6.69,2.74,8.52,1.83,1.83,4.6,2.76,8.25,2.76s6.41-.93,8.23-2.76c1.82-1.83,2.74-4.69,2.74-8.54v-.51c-.13-4.06-.25-8.66,1.22-12.31l.58-1.43h-11.38l.47,1.38ZM43,87.83c-3.07,0-5.35-.72-6.78-2.15-1.43-1.43-2.15-3.8-2.15-7.02v-.51c.12-3.77.23-7.99-.88-11.72h5.55c-.96,3.67-.96,7.79-.82,11.38,0,.69.03,1.4.08,2.12.06.81.24,1.57.54,2.24.33.75.87,1.36,1.58,1.83.72.47,1.66.7,2.87.7s2.14-.23,2.86-.7c.7-.46,1.22-1.07,1.57-1.81.31-.68.5-1.44.56-2.26.05-.72.08-1.43.08-2.08.14-3.63.14-7.76-.82-11.42h5.53c-1.11,3.73-.99,7.95-.89,11.72v.48c.01,3.25-.71,5.63-2.12,7.05-1.42,1.42-3.69,2.15-6.76,2.15Z"/>
    <path class="st2" d="M75.93,83.28l-.18-.81h-7.85c0-1.13-.01-2.25-.02-3.37-.05-4.5-.1-8.75.78-13.21l.24-1.24h-10.79l.23,1.23c1.47,7.76,1.47,14.69,0,22.45l-.23,1.23h18.81v-1.04c0-1.58-.28-2.6-.6-3.79-.12-.44-.25-.92-.38-1.47ZM60.6,66.74h5.8c-.69,4.21-.64,8.19-.6,12.39.02,1.44.03,2.89.02,4.37v1.05s8.29,0,8.29,0c.07.26.14.51.2.75.22.8.39,1.44.47,2.2h-14.18c1.22-7.13,1.22-13.63,0-20.76Z"/>
    <path class="st2" d="M91.74,64.67h-12l.23,1.23c1.47,7.76,1.47,14.69,0,22.45l-.23,1.23h11.38l-.64-1.46c-1.22-2.75-1.22-3.89-1.21-6.12h2.48c2.83,0,5.06-.77,6.62-2.3,1.56-1.53,2.36-3.67,2.36-6.38s-.79-4.85-2.36-6.38c-1.56-1.52-3.78-2.3-6.62-2.3ZM91.74,79.94h-4.56v1.04s0,.98,0,.98c0,1.99-.01,3.33.79,5.55h-5.75c1.22-7.13,1.22-13.63,0-20.76h9.51c2.27,0,4.01.57,5.17,1.7,1.17,1.14,1.73,2.74,1.73,4.89s-.57,3.75-1.73,4.89c-1.16,1.13-2.89,1.7-5.17,1.7Z"/>
    <path class="st2" d="M90.2,69.45h-3.01v7.77h3.01c2.74,0,4.31-1.42,4.31-3.88s-1.57-3.89-4.31-3.89ZM90.2,75.15h-.93v-3.62h.93c2.06,0,2.23.93,2.23,1.81s-.17,1.81-2.23,1.81Z"/>
    <path class="st2" d="M121.89,83.55l-.2-1.4h-8.51c-.06-.5-.11-1-.15-1.5h7.42s0-7.2,0-7.2h-7.49c.03-.46.07-.91.12-1.35h6.71s1.72,0,1.72,0v-1.04l.03-.36c.32-2.26.73-3.57.77-3.7l.7-2.1h-19.66s.69,2.09.69,2.09c0,.02.66,2.05.98,5.51.31,3.26.37,8.5-1.02,14.91l-.42,1.94h19.78s-.69-2.09-.69-2.09c-.03-.08-.44-1.4-.77-3.71ZM107.09,72.31c-.24-2.58-.66-4.42-.9-5.33h13.96c-.16.61-.4,1.65-.62,3.05h-8.3s-.12.91-.12.91c-.14,1.13-.24,2.31-.3,3.51l-.05,1.08h7.6s0,3.05,0,3.05h-7.57s.07,1.1.07,1.1c.08,1.2.2,2.43.36,3.65l.12.9h8.53c.21,1.4.45,2.44.62,3.05h-14.36c1.33-6.41,1.25-11.66.94-14.97Z"/>
    <path class="st2" d="M142.41,76.54c-.67-.81-1.59-1.51-2.74-2.09l3.93-8.97-1.56-.02c-.7-.01-1.29-.23-1.98-.48-.41-.15-.84-.31-1.33-.43-2.75-.7-5.37-.66-7.45.11-1.11.41-2.07,1-2.84,1.76-.78.75-1.39,1.67-1.81,2.72-.42,1.04-.64,2.2-.64,3.46s.21,2.38.63,3.25c.41.87.97,1.6,1.66,2.18.66.56,1.42,1,2.25,1.34.75.3,1.53.58,2.3.82.63.22,1.16.41,1.6.59.37.15.66.3.87.46.15.11.25.22.29.32.05.11.08.26.08.45s-.04.44-.38.76c-.34.32-.98.39-1.46.39-.7,0-1.42-.16-2.16-.49-.59-.26-1.02-.81-1.83-2.03l-.99-1.49-4.49,8.99,1.48.16c1.79.2,2.99.64,4.16,1.06,1.27.46,2.46.89,4.11.89,1.5,0,2.87-.21,4.07-.62,1.23-.42,2.29-1.02,3.14-1.78.87-.78,1.54-1.73,1.99-2.82.44-1.07.67-2.28.67-3.58,0-1.98-.53-3.62-1.59-4.89ZM141.41,84.21c-.33.8-.82,1.49-1.46,2.06-.65.58-1.47,1.04-2.43,1.37-.99.33-2.13.51-3.41.51s-2.22-.34-3.4-.77c-.9-.33-1.9-.69-3.19-.95l1.63-3.25c.5.6,1.01,1.05,1.7,1.35,1,.44,2,.66,2.99.66,1.24,0,2.2-.32,2.88-.95.68-.64,1.04-1.42,1.04-2.27,0-.5-.1-.95-.28-1.34-.19-.4-.5-.76-.92-1.08-.36-.27-.8-.51-1.34-.72-.47-.19-1.03-.39-1.72-.63-.75-.24-1.48-.5-2.19-.78-.63-.25-1.2-.58-1.68-.99-.46-.39-.84-.89-1.13-1.49-.28-.59-.43-1.38-.43-2.35s.16-1.89.48-2.68c.32-.78.77-1.46,1.34-2.01.57-.55,1.28-.99,2.12-1.3,1.68-.62,3.88-.64,6.21-.04.4.1.76.24,1.12.37.37.13.76.28,1.18.39l-1.29,2.95c-.72-.74-1.78-1.29-3.37-1.29-1.04-.01-1.85.25-2.53.75-.75.56-1.14,1.34-1.14,2.25,0,.66.22,1.25.64,1.7.33.36.75.66,1.26.91.45.22.95.41,1.5.56.48.14.96.28,1.43.44,1.74.58,3.02,1.34,3.79,2.27.75.9,1.11,2.06,1.11,3.56,0,1.03-.17,1.96-.51,2.78ZM138.79,74.04c-.35-.15-.72-.28-1.1-.41-.5-.17-1-.32-1.51-.47-.43-.12-.82-.27-1.16-.43-.28-.13-.49-.29-.65-.45-.03-.03-.09-.1-.09-.3,0-.26.09-.43.31-.59.31-.23.72-.34,1.38-.34.63,0,1.84.06,2.42,1.81l.4,1.19Z"/>
    <path class="st2" d="M92.78,27.25L99.37,0l-18.23,9.54L73.43.01l-7.71,9.52L47.48,0l6.6,27.25h38.71ZM66.26,12.16l7.17-8.85,7.17,8.85,15.68-8.2-5.13,21.22h-35.44l-5.14-21.22,15.69,8.2Z"/>
    <polygon class="st0" points="91.15 25.18 96.28 3.96 80.6 12.16 73.43 3.31 66.26 12.16 50.57 3.96 55.71 25.18 91.15 25.18"/>
  </g>
  <g>
    <path class="st1" d="M11.49,102.05c.44.43.78.93,1.04,1.5h-1.77c-.1-.15-.22-.29-.36-.42-.69-.69-1.52-1.03-2.49-1.03s-1.8.34-2.49,1.03-1.03,1.52-1.03,2.49.34,1.8,1.03,2.49,1.52,1.03,2.49,1.03,1.8-.34,2.49-1.03c.13-.13.25-.27.36-.42h1.77c-.26.56-.6,1.07-1.04,1.5-.98.99-2.17,1.48-3.57,1.48s-2.59-.5-3.58-1.48-1.48-2.18-1.48-3.58.49-2.59,1.48-3.57c.99-.99,2.18-1.48,3.58-1.48s2.59.49,3.57,1.48Z"/>
    <path class="st1" d="M23.71,102.05c.98.98,1.48,2.17,1.48,3.57s-.49,2.59-1.48,3.58c-.99.99-2.18,1.48-3.58,1.48s-2.59-.5-3.58-1.48c-.98-.99-1.48-2.18-1.48-3.58s.49-2.59,1.48-3.57c.99-.99,2.18-1.48,3.58-1.48s2.59.49,3.58,1.48ZM20.13,102.11c-.97,0-1.8.34-2.49,1.03s-1.03,1.52-1.03,2.49.34,1.8,1.03,2.49,1.52,1.03,2.49,1.03,1.8-.34,2.49-1.03c.69-.69,1.03-1.52,1.03-2.49s-.34-1.8-1.03-2.49c-.69-.69-1.52-1.03-2.49-1.03Z"/>
    <path class="st1" d="M33.35,102.3h-4.1v2.57h3.47v1.52h-3.47v4.1h-1.52v-9.7h5.62v1.52Z"/>
    <path class="st1" d="M41.51,102.3h-4.1v2.57h3.47v1.52h-3.47v4.1h-1.52v-9.7h5.62v1.52Z"/>
    <path class="st1" d="M49.66,110.48h-5.61v-9.7h5.61v1.52h-4.09v2.57h3.47v1.52h-3.47v2.58h4.09v1.52Z"/>
    <path class="st1" d="M57.81,110.48h-5.61v-9.7h5.61v1.52h-4.09v2.57h3.47v1.52h-3.47v2.58h4.09v1.52Z"/>
    <path class="st1" d="M73.96,102.05c.44.43.78.93,1.04,1.5h-1.77c-.1-.15-.22-.29-.36-.42-.69-.69-1.52-1.03-2.49-1.03s-1.8.34-2.49,1.03-1.03,1.52-1.03,2.49.34,1.8,1.03,2.49,1.52,1.03,2.49,1.03,1.8-.34,2.49-1.03c.13-.13.25-.27.36-.42h1.77c-.26.56-.6,1.07-1.04,1.5-.98.99-2.17,1.48-3.57,1.48s-2.59-.5-3.58-1.48-1.48-2.18-1.48-3.58.49-2.59,1.48-3.57c.99-.99,2.18-1.48,3.58-1.48s2.59.49,3.57,1.48Z"/>
    <path class="st1" d="M86.18,102.05c.98.98,1.48,2.17,1.48,3.57s-.49,2.59-1.48,3.58c-.99.99-2.18,1.48-3.58,1.48s-2.59-.5-3.58-1.48c-.98-.99-1.48-2.18-1.48-3.58s.49-2.59,1.48-3.57c.99-.99,2.18-1.48,3.58-1.48s2.59.49,3.58,1.48ZM82.6,102.11c-.97,0-1.8.34-2.49,1.03-.69.69-1.03,1.52-1.03,2.49s.34,1.8,1.03,2.49c.69.69,1.52,1.03,2.49,1.03s1.8-.34,2.49-1.03,1.03-1.52,1.03-2.49-.34-1.8-1.03-2.49-1.52-1.03-2.49-1.03Z"/>
    <path class="st1" d="M91.69,100.78l3.45,7.37,3.44-7.37h1.5v9.7h-1.52v-6.08l-2.84,6.08h-1.18l-2.84-6.08v6.08h-1.52v-9.7h1.5Z"/>
    <path class="st1" d="M106.65,100.78c.96,0,1.78.34,2.47,1.03.69.75,1.03,1.57,1.03,2.47s-.34,1.72-1.03,2.47c-.69.69-1.51,1.03-2.47,1.03h-2.49v2.7h-1.52v-9.7h4.01ZM104.15,102.32v3.93h2.49c.54,0,1-.2,1.39-.58.38-.43.58-.88.58-1.39s-.19-.96-.58-1.39c-.38-.38-.85-.58-1.39-.58h-2.49Z"/>
    <path class="st1" d="M114.98,108.66l-.66,1.82h-1.62l3.55-9.7h1.78l3.55,9.7h-1.62l-.66-1.82h-4.31ZM118.73,107.14l-1.6-4.37-1.6,4.37h3.2Z"/>
    <path class="st1" d="M125.6,100.78l4.82,6.92v-6.92h1.53v9.7h-1.44l-4.88-7v7h-1.52v-9.7h1.48Z"/>
    <path class="st1" d="M137.68,106.02l-3.19-5.24h1.78l2.17,3.57,2.17-3.57h1.78l-3.19,5.24v4.47h-1.52v-4.47Z"/>
  </g>
</svg>