<?xml version="1.0" encoding="UTF-8"?>
<svg id="Layer_1" xmlns="http://www.w3.org/2000/svg" version="1.1" viewBox="0 0 353.51 87.8">
  <!-- Generator: Adobe Illustrator 29.2.1, SVG Export Plug-In . SVG Version: 2.1.0 Build 116)  -->
  <defs>
    <style>
      .st0 {
        fill: #e9eceb;
      }
    </style>
  </defs>
  <g>
    <g>
      <g>
        <path class="st0" d="M55.07-223.15h10.08l.18,4.46,4.15,16.66,4.24-16.66-1.02-4.46h9.24l.18,4.46,4.07,16.66,4.24-16.66.18-4.46h8.22l-8.84,29.34h-8.4l-4.38-16.7-4.51,16.7h-8.66l-8.97-29.34Z"/>
        <path class="st0" d="M127.23-193.81h-10.21l-.27-3.84-.44-1.1h-11.98l-.44,1.1-.26,3.84h-8.71l11.09-26.25-1.28-3.09h10.34l12.15,29.34ZM114.23-204.1l-3.89-9.9-3.89,9.9h7.78Z"/>
        <path class="st0" d="M141.72-198.27l1.06,4.46h-10.52l1.06-4.46v-6.58l-11.75-18.29h11.8l.49,4.46,4.38,8.31,4.46-8.31.53-4.46h10.08l-11.58,18.25v6.63Z"/>
        <path class="st0" d="M173.22-209.67l2.96-.62v6.89l-2.96-.62h-8.79v5.75l1.81,4.46h-11.27l1.06-4.46v-20.42l-1.06-4.46h23.46l1.06,6.94-4.46-1.19h-10.61v7.73h8.79Z"/>
        <path class="st0" d="M208.79-193.81h-10.21l-.27-3.84-.44-1.1h-11.98l-.44,1.1-.27,3.84h-8.71l11.09-26.25-1.28-3.09h10.34l12.15,29.34ZM195.8-204.1l-3.89-9.9-3.89,9.9h7.78Z"/>
        <path class="st0" d="M239.32-193.81h-11.27l-.4-3.76-4.15-6.85h-4.02v6.14l1.11,4.46h-10.61l1.1-4.46v-20.42l-1.1-4.46h15.91c7.82,0,11.14,3.23,11.14,9.24,0,3.76-1.9,6.63-6.01,7.87l8.31,12.24ZM223.99-210.02c3.09,0,4.86-1.1,4.86-3.76s-1.19-3.93-4.29-3.93h-5.26v7.69h4.68Z"/>
        <path class="st0" d="M266.45-200.74l-1.06,6.94h-24.44l1.06-4.46v-20.42l-1.06-4.46h23.95l1.02,6.94-4.46-1.19h-11.09v5.97h7.78l2.96-.66v6.85l-2.96-.66h-7.78v6.36h11.58l4.51-1.19Z"/>
        <path class="st0" d="M298.44-193.81h-11.27l-.4-3.76-4.15-6.85h-4.02v6.14l1.11,4.46h-10.61l1.1-4.46v-20.42l-1.1-4.46h15.91c7.82,0,11.14,3.23,11.14,9.24,0,3.76-1.9,6.63-6.01,7.87l8.31,12.24ZM283.11-210.02c3.09,0,4.86-1.1,4.86-3.76s-1.19-3.93-4.29-3.93h-5.26v7.69h4.68Z"/>
      </g>
      <g>
        <path class="st0" d="M104.42-179.76c-.6-.34-1.08-.8-1.43-1.4-.35-.6-.53-1.27-.53-2.03s.18-1.42.53-2.02c.35-.6.83-1.07,1.43-1.4s1.26-.51,1.98-.51,1.39.17,1.99.51,1.07.8,1.42,1.4.52,1.27.52,2.02-.17,1.43-.52,2.03-.82,1.07-1.42,1.4c-.6.34-1.26.51-1.98.51s-1.38-.17-1.98-.51ZM107.62-180.94c.35-.21.63-.51.83-.9s.3-.84.3-1.35-.1-.96-.3-1.35-.47-.68-.83-.89c-.35-.21-.76-.31-1.22-.31s-.87.1-1.23.31c-.36.21-.63.5-.83.89-.2.38-.3.83-.3,1.35s.1.96.3,1.35c.2.39.47.69.83.9.36.21.76.31,1.23.31s.87-.1,1.22-.31Z"/>
        <path class="st0" d="M114.09-187.01v4.75c0,.52.14.92.41,1.19.27.27.65.41,1.14.41s.88-.14,1.16-.41c.27-.28.41-.67.41-1.19v-4.75h1.55v4.74c0,.65-.14,1.21-.42,1.66-.28.45-.66.79-1.13,1.02-.47.23-1,.34-1.58.34s-1.09-.11-1.56-.34c-.46-.23-.83-.57-1.11-1.02-.27-.45-.41-1-.41-1.66v-4.74h1.54Z"/>
        <path class="st0" d="M126.56-187.01v1.24h-2.05v6.44h-1.54v-6.44h-2.05v-1.24h5.63Z"/>
        <path class="st0" d="M133.59-186.53c.61.32,1.08.76,1.42,1.35s.5,1.26.5,2.03-.17,1.44-.5,2.02c-.33.58-.81,1.02-1.42,1.34-.61.32-1.32.47-2.13.47h-2.68v-7.68h2.68c.81,0,1.52.16,2.13.47ZM133.28-181.3c.44-.44.66-1.06.66-1.86s-.22-1.42-.66-1.88c-.44-.45-1.06-.68-1.87-.68h-1.09v5.07h1.09c.81,0,1.43-.22,1.87-.66Z"/>
        <path class="st0" d="M139.35-179.76c-.6-.34-1.08-.8-1.43-1.4-.35-.6-.53-1.27-.53-2.03s.18-1.42.53-2.02c.35-.6.83-1.07,1.43-1.4s1.26-.51,1.98-.51,1.39.17,1.99.51,1.07.8,1.42,1.4.52,1.27.52,2.02-.17,1.43-.52,2.03-.82,1.07-1.42,1.4c-.6.34-1.26.51-1.98.51s-1.38-.17-1.98-.51ZM142.55-180.94c.35-.21.63-.51.83-.9s.3-.84.3-1.35-.1-.96-.3-1.35-.47-.68-.83-.89c-.35-.21-.76-.31-1.22-.31s-.87.1-1.23.31c-.36.21-.63.5-.83.89-.2.38-.3.83-.3,1.35s.1.96.3,1.35c.2.39.47.69.83.9.36.21.76.31,1.23.31s.87-.1,1.22-.31Z"/>
        <path class="st0" d="M149.09-179.76c-.6-.34-1.08-.8-1.43-1.4-.35-.6-.53-1.27-.53-2.03s.18-1.42.53-2.02c.35-.6.83-1.07,1.43-1.4s1.26-.51,1.98-.51,1.39.17,1.99.51,1.07.8,1.42,1.4.52,1.27.52,2.02-.17,1.43-.52,2.03-.82,1.07-1.42,1.4c-.6.34-1.26.51-1.98.51s-1.38-.17-1.98-.51ZM152.29-180.94c.35-.21.63-.51.83-.9s.3-.84.3-1.35-.1-.96-.3-1.35-.47-.68-.83-.89c-.35-.21-.76-.31-1.22-.31s-.87.1-1.23.31c-.36.21-.63.5-.83.89-.2.38-.3.83-.3,1.35s.1.96.3,1.35c.2.39.47.69.83.9.36.21.76.31,1.23.31s.87-.1,1.22-.31Z"/>
        <path class="st0" d="M161.2-179.33l-1.69-2.99h-.73v2.99h-1.54v-7.68h2.88c.59,0,1.1.1,1.52.31.42.21.73.49.94.85s.31.75.31,1.19c0,.51-.15.96-.44,1.37-.29.41-.73.69-1.31.84l1.84,3.11h-1.78ZM158.78-183.47h1.29c.42,0,.73-.1.94-.3.21-.2.31-.48.31-.84s-.1-.62-.31-.82c-.21-.19-.52-.29-.94-.29h-1.29v2.25Z"/>
        <path class="st0" d="M166.59-179.53c-.43-.18-.77-.45-1.02-.79-.25-.34-.38-.75-.39-1.22h1.65c.02.32.13.56.34.75.2.18.48.27.83.27s.64-.09.85-.26c.21-.17.31-.4.31-.68,0-.23-.07-.41-.21-.56-.14-.15-.31-.26-.52-.35-.21-.08-.5-.18-.86-.28-.5-.15-.9-.29-1.21-.43-.31-.14-.58-.36-.8-.65-.22-.29-.34-.68-.34-1.16,0-.45.11-.85.34-1.19s.55-.6.96-.78c.41-.18.88-.27,1.41-.27.79,0,1.44.19,1.93.58s.77.92.82,1.61h-1.69c-.01-.26-.13-.48-.33-.65-.21-.17-.49-.26-.83-.26-.3,0-.54.08-.72.23-.18.15-.27.38-.27.67,0,.21.07.38.2.51s.3.25.51.33.49.18.85.29c.5.15.91.29,1.22.44s.59.37.81.66c.23.29.34.68.34,1.15,0,.41-.11.79-.32,1.14-.21.35-.52.63-.93.84-.41.21-.9.31-1.46.31-.54,0-1.02-.09-1.45-.28Z"/>
        <path class="st0" d="M185.28-187.01v7.68h-1.54v-4.99l-2.06,4.99h-1.17l-2.07-4.99v4.99h-1.54v-7.68h1.75l2.44,5.71,2.44-5.71h1.74Z"/>
        <path class="st0" d="M192.6-180.79h-3.06l-.51,1.46h-1.62l2.76-7.69h1.79l2.76,7.69h-1.63l-.51-1.46ZM192.18-182.02l-1.11-3.21-1.11,3.21h2.22Z"/>
        <path class="st0" d="M202.22-184.69c-.18-.32-.42-.57-.73-.74-.31-.17-.67-.25-1.08-.25-.45,0-.86.1-1.21.31-.35.21-.63.5-.83.88-.2.38-.3.82-.3,1.32s.1.96.3,1.34c.2.38.48.67.84.88s.78.31,1.25.31c.59,0,1.07-.16,1.44-.47.37-.31.62-.75.74-1.3h-2.64v-1.18h4.16v1.34c-.1.54-.32,1.03-.66,1.48-.34.46-.77.82-1.3,1.09-.53.28-1.13.41-1.79.41-.74,0-1.41-.17-2.01-.5s-1.07-.8-1.41-1.39-.51-1.27-.51-2.02.17-1.43.51-2.03.81-1.06,1.41-1.4c.6-.33,1.26-.5,2-.5.87,0,1.62.21,2.25.63.64.42,1.08,1.01,1.32,1.78h-1.77Z"/>
        <path class="st0" d="M211.13-180.79h-3.06l-.51,1.46h-1.62l2.76-7.69h1.79l2.76,7.69h-1.63l-.51-1.46ZM210.71-182.02l-1.11-3.21-1.11,3.21h2.22Z"/>
        <path class="st0" d="M216.97-180.62h3.45v1.3h-5.24v-1.19l3.43-5.19h-3.43v-1.3h5.24v1.19l-3.45,5.19Z"/>
        <path class="st0" d="M224.37-187.01v7.68h-1.54v-7.68h1.54Z"/>
        <path class="st0" d="M233.56-179.33h-1.54l-3.49-5.27v5.27h-1.54v-7.69h1.54l3.49,5.28v-5.28h1.54v7.69Z"/>
        <path class="st0" d="M237.71-185.76v1.93h2.58v1.22h-2.58v2.04h2.92v1.25h-4.46v-7.69h4.46v1.25h-2.92Z"/>
      </g>
    </g>
    <path class="st0" d="M165.9-246.48l-2.45,3.17c-.22.29-.46.56-.71.8.25-.25.48-.52.7-.8l2.46-3.17Z"/>
    <path class="st0" d="M174.56-261.46c-.11-.23-.21-.45-.3-.68l-2.03-4.97,2.04,4.97c.09.23.19.46.29.68Z"/>
    <path class="st0" d="M172.23-267.11l-2.04,4.97c-.19.46-.39.91-.61,1.35.21-.44.41-.89.6-1.35l2.04-4.98h.01Z"/>
    <path class="st0" d="M201.3-277.71l-5.35-2.67c-.75-.37-1.58-.52-2.4-.43,0,0-1.72.06-2.47.43l-5.6,1.42c-.45.22-.92.36-1.39.42-1.1-.13-2.14-.68-2.88-1.6l-3.52-4.77c-1.39-1.36-3.45-1.98-5.45-1.87h-.03c-2-.11-4.06.51-5.45,1.87l-3.52,4.77c-.74.92-1.78,1.47-2.88,1.6-.47-.06-.94-.2-1.39-.42l-5.6-1.42c-.76-.38-2.46-.43-2.46-.43-.81-.09-1.64.05-2.4.43l-5.35,2.67c-1.59.79-2.52,2.42-2.44,4.14h0c-.02.44.01.88.11,1.31l6.67,29.12c.46,2.01,2.24,3.43,4.3,3.43h4.32c2.51,0,4.89-1.02,6.62-2.8.25-.25.48-.52.7-.8l2.46-3.17-5.24.72,7.55-7.34-4.26.32,3.26-4.2s.03-.03.03-.05c.15-.19.3-.39.44-.59.44-.6.84-1.22,1.21-1.86.24-.43.47-.86.69-1.3h0c.21-.45.41-.9.6-1.36l2.04-4.98h.01s2.04,4.98,2.04,4.98c.09.23.19.46.29.68.21.48.44.94.69,1.4.1.2.21.4.33.6.36.63.76,1.24,1.19,1.84.14.2.29.4.44.59l3.29,4.25-4.26-.32,7.55,7.34-5.24-.72,2.46,3.17c1.75,2.27,4.46,3.6,7.32,3.6h4.33c2.05,0,3.83-1.42,4.29-3.43l6.68-29.12c.1-.43.13-.86.1-1.28v-.02c.08-1.72-.85-3.36-2.43-4.15Z"/>
    <path class="st0" d="M202.03-294.81l-26.15-12.93c-1.22-.6-2.56-.9-3.89-.9-1.35,0-2.71.31-3.95.94l-25.65,12.88c-3.57,1.79-5.45,5.77-4.55,9.65l7.86,33.98c.92,3.98,3.42,7.26,6.74,9.28-.02-1.87.32-3.73,1.03-5.44-1.4-1.3-2.44-3-2.89-4.97l-7.86-33.98c-.38-1.63.42-3.3,1.93-4.06l25.65-12.89c.52-.26,1.11-.4,1.7-.4s1.16.14,1.67.39l26.15,12.93c1.53.76,2.33,2.43,1.95,4.06l-2.9,12.54-4.95,21.4c-.26,1.13-.72,2.17-1.32,3.1.54,1.92.75,3.92.52,5.81-.04.3-.09.6-.15.89,2.86-2.04,4.98-5.07,5.82-8.67l4.95-21.4,2.9-12.54c.91-3.89-1-7.89-4.6-9.67Z"/>
  </g>
  <g>
    <g>
      <g>
        <g>
          <path class="st0" d="M110.14,30.18h10.08l.18,4.46,4.15,16.66,4.24-16.66-1.02-4.46h9.24l.18,4.46,4.07,16.66,4.24-16.66.18-4.46h8.22l-8.84,29.34h-8.4l-4.38-16.7-4.51,16.7h-8.66l-8.97-29.34Z"/>
          <path class="st0" d="M182.29,59.52h-10.21l-.27-3.84-.44-1.1h-11.98l-.44,1.1-.26,3.84h-8.71l11.09-26.25-1.28-3.09h10.34l12.15,29.34ZM169.3,49.22l-3.89-9.9-3.89,9.9h7.78Z"/>
          <path class="st0" d="M196.79,55.05l1.06,4.46h-10.52l1.06-4.46v-6.58l-11.75-18.29h11.8l.49,4.46,4.38,8.31,4.46-8.31.53-4.46h10.08l-11.58,18.25v6.63Z"/>
          <path class="st0" d="M228.29,43.65l2.96-.62v6.89l-2.96-.62h-8.79v5.75l1.81,4.46h-11.27l1.06-4.46v-20.42l-1.06-4.46h23.46l1.06,6.94-4.46-1.19h-10.61v7.73h8.79Z"/>
          <path class="st0" d="M263.86,59.52h-10.21l-.27-3.84-.44-1.1h-11.98l-.44,1.1-.27,3.84h-8.71l11.09-26.25-1.28-3.09h10.34l12.15,29.34ZM250.87,49.22l-3.89-9.9-3.89,9.9h7.78Z"/>
          <path class="st0" d="M294.39,59.52h-11.27l-.4-3.76-4.15-6.85h-4.02v6.14l1.11,4.46h-10.61l1.1-4.46v-20.42l-1.1-4.46h15.91c7.82,0,11.14,3.23,11.14,9.24,0,3.76-1.9,6.63-6.01,7.87l8.31,12.24ZM279.06,43.3c3.09,0,4.86-1.1,4.86-3.76s-1.19-3.93-4.29-3.93h-5.26v7.69h4.68Z"/>
          <path class="st0" d="M321.52,52.58l-1.06,6.94h-24.44l1.06-4.46v-20.42l-1.06-4.46h23.95l1.02,6.94-4.46-1.19h-11.09v5.97h7.78l2.96-.66v6.85l-2.96-.66h-7.78v6.36h11.58l4.51-1.19Z"/>
          <path class="st0" d="M353.51,59.52h-11.27l-.4-3.76-4.15-6.85h-4.02v6.14l1.11,4.46h-10.61l1.1-4.46v-20.42l-1.1-4.46h15.91c7.82,0,11.14,3.23,11.14,9.24,0,3.76-1.9,6.63-6.01,7.87l8.31,12.24ZM338.18,43.3c3.09,0,4.86-1.1,4.86-3.76s-1.19-3.93-4.29-3.93h-5.26v7.69h4.68Z"/>
        </g>
        <g>
          <path class="st0" d="M137.03,76.71c-.85-.48-1.52-1.14-2.02-1.98-.5-.84-.75-1.8-.75-2.87s.25-2.01.75-2.85c.5-.84,1.17-1.5,2.02-1.98s1.78-.71,2.8-.71,1.96.24,2.8.71,1.51,1.14,2,1.98.74,1.79.74,2.85-.25,2.02-.74,2.87-1.16,1.5-2.01,1.98c-.85.48-1.78.72-2.8.72s-1.95-.24-2.8-.72ZM141.55,75.04c.5-.3.89-.72,1.17-1.27s.42-1.19.42-1.91-.14-1.36-.42-1.9-.67-.96-1.17-1.25c-.5-.29-1.07-.43-1.72-.43s-1.23.14-1.73.43c-.5.29-.89.71-1.17,1.25-.28.54-.42,1.18-.42,1.9s.14,1.36.42,1.91c.28.55.67.97,1.17,1.27.5.3,1.08.44,1.73.44s1.23-.15,1.72-.44Z"/>
          <path class="st0" d="M150.69,66.47v6.71c0,.74.19,1.3.57,1.69.38.39.92.58,1.62.58s1.25-.19,1.63-.58c.38-.39.57-.95.57-1.69v-6.71h2.19v6.7c0,.92-.2,1.7-.6,2.34-.4.64-.93,1.12-1.6,1.44-.67.32-1.41.48-2.23.48s-1.54-.16-2.2-.48c-.66-.32-1.18-.8-1.56-1.44-.38-.64-.57-1.41-.57-2.34v-6.7h2.17Z"/>
          <path class="st0" d="M168.3,66.47v1.76h-2.89v9.09h-2.17v-9.09h-2.89v-1.76h7.95Z"/>
          <path class="st0" d="M178.23,67.14c.86.45,1.53,1.08,2,1.9s.71,1.78.71,2.87-.24,2.04-.71,2.85c-.47.81-1.14,1.44-2,1.89-.86.45-1.87.67-3,.67h-3.79v-10.84h3.79c1.14,0,2.14.22,3,.67ZM177.79,74.53c.62-.62.93-1.5.93-2.62s-.31-2.01-.93-2.65c-.62-.64-1.5-.95-2.64-.95h-1.54v7.16h1.54c1.14,0,2.02-.31,2.64-.93Z"/>
          <path class="st0" d="M186.36,76.71c-.85-.48-1.52-1.14-2.02-1.98-.5-.84-.75-1.8-.75-2.87s.25-2.01.75-2.85c.5-.84,1.17-1.5,2.02-1.98s1.78-.71,2.8-.71,1.96.24,2.8.71,1.51,1.14,2,1.98.74,1.79.74,2.85-.25,2.02-.74,2.87-1.16,1.5-2.01,1.98c-.85.48-1.78.72-2.8.72s-1.95-.24-2.8-.72ZM190.88,75.04c.5-.3.89-.72,1.17-1.27s.42-1.19.42-1.91-.14-1.36-.42-1.9-.67-.96-1.17-1.25c-.5-.29-1.07-.43-1.72-.43s-1.23.14-1.73.43c-.5.29-.89.71-1.17,1.25-.28.54-.42,1.18-.42,1.9s.14,1.36.42,1.91c.28.55.67.97,1.17,1.27.5.3,1.08.44,1.73.44s1.23-.15,1.72-.44Z"/>
          <path class="st0" d="M200.11,76.71c-.85-.48-1.52-1.14-2.02-1.98-.5-.84-.75-1.8-.75-2.87s.25-2.01.75-2.85c.5-.84,1.17-1.5,2.02-1.98s1.78-.71,2.8-.71,1.96.24,2.8.71,1.51,1.14,2,1.98.74,1.79.74,2.85-.25,2.02-.74,2.87-1.16,1.5-2.01,1.98c-.85.48-1.78.72-2.8.72s-1.95-.24-2.8-.72ZM204.63,75.04c.5-.3.89-.72,1.17-1.27s.42-1.19.42-1.91-.14-1.36-.42-1.9-.67-.96-1.17-1.25c-.5-.29-1.07-.43-1.72-.43s-1.23.14-1.73.43c-.5.29-.89.71-1.17,1.25-.28.54-.42,1.18-.42,1.9s.14,1.36.42,1.91c.28.55.67.97,1.17,1.27.5.3,1.08.44,1.73.44s1.23-.15,1.72-.44Z"/>
          <path class="st0" d="M217.21,77.32l-2.39-4.23h-1.03v4.23h-2.17v-10.84h4.07c.84,0,1.55.15,2.14.44.59.3,1.03.69,1.33,1.2s.44,1.06.44,1.69c0,.71-.21,1.36-.62,1.93-.41.58-1.03.97-1.85,1.19l2.59,4.4h-2.52ZM213.8,71.46h1.82c.59,0,1.03-.14,1.32-.43.29-.28.43-.68.43-1.19s-.14-.88-.43-1.16c-.29-.27-.73-.41-1.32-.41h-1.82v3.18Z"/>
          <path class="st0" d="M224.83,77.04c-.61-.26-1.09-.63-1.44-1.12-.35-.49-.53-1.06-.54-1.72h2.33c.03.45.19.8.47,1.06.28.26.68.39,1.17.39s.91-.12,1.2-.36c.29-.24.44-.56.44-.96,0-.32-.1-.58-.3-.79-.2-.21-.44-.37-.74-.49-.3-.12-.7-.25-1.22-.4-.7-.21-1.28-.41-1.72-.61-.44-.2-.82-.51-1.13-.92-.32-.41-.47-.96-.47-1.64,0-.64.16-1.2.48-1.68s.77-.84,1.35-1.09c.58-.25,1.24-.38,1.99-.38,1.12,0,2.03.27,2.73.82s1.08,1.3,1.16,2.28h-2.39c-.02-.37-.18-.68-.47-.92-.3-.24-.69-.37-1.17-.37-.42,0-.76.11-1.02.33-.26.22-.38.53-.38.95,0,.29.1.53.29.72s.43.35.71.47.69.26,1.2.41c.7.21,1.28.42,1.72.62s.83.52,1.15.93c.32.41.48.96.48,1.63,0,.58-.15,1.12-.45,1.62-.3.5-.74.89-1.32,1.19-.58.3-1.27.44-2.07.44-.76,0-1.44-.13-2.04-.39Z"/>
          <path class="st0" d="M251.22,66.47v10.84h-2.17v-7.05l-2.9,7.05h-1.65l-2.92-7.05v7.05h-2.17v-10.84h2.47l3.45,8.06,3.45-8.06h2.45Z"/>
          <path class="st0" d="M261.56,75.25h-4.32l-.71,2.07h-2.28l3.9-10.86h2.53l3.9,10.86h-2.3l-.71-2.07ZM260.97,73.51l-1.57-4.54-1.57,4.54h3.14Z"/>
          <path class="st0" d="M275.14,69.74c-.25-.46-.59-.8-1.03-1.04-.43-.24-.94-.36-1.52-.36-.64,0-1.21.14-1.71.44-.5.29-.89.7-1.17,1.24-.28.54-.42,1.16-.42,1.86s.14,1.36.43,1.9c.28.54.68.95,1.19,1.24s1.1.43,1.77.43c.83,0,1.51-.22,2.03-.66.53-.44.88-1.05,1.04-1.84h-3.73v-1.66h5.87v1.9c-.15.76-.46,1.45-.93,2.1-.48.64-1.09,1.16-1.84,1.55-.75.39-1.59.58-2.53.58-1.05,0-1.99-.23-2.83-.71s-1.51-1.13-1.99-1.97-.72-1.79-.72-2.86.24-2.02.72-2.87,1.14-1.5,1.99-1.97c.84-.47,1.78-.71,2.82-.71,1.22,0,2.28.3,3.18.89.9.6,1.52,1.43,1.86,2.51h-2.5Z"/>
          <path class="st0" d="M287.72,75.25h-4.32l-.71,2.07h-2.28l3.9-10.86h2.53l3.9,10.86h-2.3l-.71-2.07ZM287.13,73.51l-1.57-4.54-1.57,4.54h3.14Z"/>
          <path class="st0" d="M295.97,75.48h4.88v1.83h-7.39v-1.68l4.85-7.33h-4.85v-1.83h7.39v1.68l-4.88,7.33Z"/>
          <path class="st0" d="M306.42,66.47v10.84h-2.17v-10.84h2.17Z"/>
          <path class="st0" d="M319.39,77.32h-2.17l-4.92-7.44v7.44h-2.17v-10.86h2.17l4.92,7.46v-7.46h2.17v10.86Z"/>
          <path class="st0" d="M325.26,68.23v2.72h3.65v1.72h-3.65v2.87h4.12v1.77h-6.29v-10.86h6.29v1.77h-4.12Z"/>
        </g>
      </g>
      <g>
        <path class="st0" d="M81.11,39.4l-6.81-3.4c-.96-.47-2.01-.66-3.06-.55,0,0-2.19.08-3.15.55l-7.13,1.81c-.57.28-1.17.46-1.77.54-1.4-.17-2.73-.87-3.67-2.04l-4.48-6.08c-1.77-1.73-4.39-2.52-6.94-2.38h-.04c-2.55-.14-5.17.65-6.94,2.38l-4.48,6.08c-.94,1.17-2.27,1.87-3.67,2.04-.6-.08-1.2-.25-1.77-.54l-7.13-1.81c-.97-.48-3.13-.55-3.13-.55-1.03-.11-2.09.06-3.06.55l-6.81,3.4c-2.03,1.01-3.21,3.08-3.11,5.27h0c-.03.56.01,1.12.14,1.67l8.5,37.09c.59,2.56,2.85,4.37,5.48,4.37h5.5c3.2,0,6.23-1.3,8.43-3.57.32-.32.61-.66.89-1.02l3.13-4.04-6.67.92,9.62-9.35-5.43.41,4.15-5.35s.04-.04.04-.06c.19-.24.38-.5.56-.75.56-.76,1.07-1.55,1.54-2.37.31-.55.6-1.1.88-1.66h0c.27-.57.52-1.15.76-1.73l2.6-6.34h.01s2.6,6.34,2.6,6.34c.11.29.24.59.37.87.27.61.56,1.2.88,1.78.13.25.27.51.42.76.46.8.97,1.58,1.52,2.34.18.25.37.51.56.75l4.19,5.41-5.43-.41,9.62,9.35-6.67-.92,3.13,4.04c2.23,2.89,5.68,4.59,9.32,4.59h5.52c2.61,0,4.88-1.81,5.46-4.37l8.51-37.09c.13-.55.17-1.1.13-1.63v-.03c.1-2.19-1.08-4.28-3.1-5.29Z"/>
        <path class="st0" d="M82.04,17.62L48.73,1.15C47.17.38,45.47,0,43.78,0c-1.72,0-3.45.4-5.03,1.19L6.08,17.6C1.54,19.88-.86,24.95.28,29.89l10.02,43.28c1.17,5.07,4.35,9.24,8.58,11.82-.02-2.38.41-4.75,1.31-6.93-1.78-1.65-3.1-3.82-3.68-6.33L6.49,28.46c-.48-2.08.53-4.2,2.45-5.17L41.62,6.88c.66-.33,1.41-.51,2.16-.51s1.48.17,2.13.49l33.3,16.47c1.95.97,2.97,3.09,2.49,5.18l-3.69,15.98-6.3,27.25c-.33,1.44-.91,2.76-1.68,3.94.69,2.44.95,4.99.66,7.4-.05.38-.12.76-.19,1.14,3.64-2.6,6.35-6.46,7.41-11.05l6.3-27.25,3.69-15.98c1.16-4.96-1.28-10.04-5.86-12.32Z"/>
      </g>
    </g>
    <g>
      <path class="st0" d="M81.53,83.12v3.89l.26.79h-1.6l.26-.79v-3.89h-1.03l-.8.2.15-.98h4.45l.16.98-.8-.2h-1.04Z"/>
      <path class="st0" d="M89.99,87.01l.15.79h-1.29l.16-.79v-3.77l-1.63,4.56h-.85l-1.55-4.56v3.77l.15.79h-1.18l.16-.79v-3.88l-.16-.79h1.83l.15.71,1.17,3.38,1.15-3.38.13-.71h1.77l-.15.79v3.88Z"/>
    </g>
  </g>
</svg>